<svg viewBox="0 0 24 24" fill="none" xmlns="http://www.w3.org/2000/svg">
<path d="M20.9459 19.7063L15.1027 13.863C16.0094 12.6907 16.4999 11.2575 16.4999 9.75C16.4999 7.94551 15.7957 6.25352 14.5222 4.97777C13.2487 3.70202 11.5522 3.00003 9.74996 3.00003C7.94773 3.00003 6.25124 3.70427 4.97774 4.97777C3.70199 6.25126 3 7.94551 3 9.75C3 11.5522 3.70425 13.2487 4.97774 14.5222C6.25124 15.798 7.94548 16.5 9.74996 16.5C11.2575 16.5 12.6885 16.0095 13.8607 15.105L19.7039 20.946C19.721 20.9631 19.7414 20.9766 19.7638 20.986C19.7862 20.9952 19.8101 21 19.8345 21C19.8587 21 19.8827 20.9952 19.905 20.986C19.9275 20.9766 19.9478 20.9631 19.9649 20.946L20.9459 19.9672C20.963 19.9501 20.9767 19.9298 20.9859 19.9073C20.9952 19.885 21 19.8609 21 19.8367C21 19.8124 20.9952 19.7885 20.9859 19.766C20.9767 19.7437 20.963 19.7234 20.9459 19.7063ZM13.3139 13.314C12.36 14.2657 11.0955 14.79 9.74996 14.79C8.40448 14.79 7.13998 14.2657 6.18598 13.314C5.23424 12.36 4.70999 11.0955 4.70999 9.75C4.70999 8.40451 5.23424 7.13776 6.18598 6.18601C7.13998 5.23426 8.40448 4.71002 9.74996 4.71002C11.0955 4.71002 12.3622 5.23202 13.3139 6.18601C14.2657 7.14001 14.7899 8.40451 14.7899 9.75C14.7899 11.0955 14.2657 12.3622 13.3139 13.314Z" fill="currentColor"/>
</svg>
